<svg width="50" height="50" viewBox="0 0 50 50" fill="none" xmlns="http://www.w3.org/2000/svg">
<rect opacity="0.1" x="0.5" y="0.5" width="49" height="49" rx="24.5" fill="#FDC435" stroke="#6E6E6E"/>
<path d="M19.315 19.1761C19.065 18.5381 19.075 17.8091 19.186 17.1421C19.9502 17.371 20.6679 17.7333 21.306 18.2121C21.586 18.4261 21.953 18.4951 22.295 18.3921C23.1726 18.1295 24.084 17.9974 25 18.0001C25.961 18.0001 26.874 18.1401 27.703 18.3911C28.045 18.4951 28.412 18.4251 28.691 18.2111C29.3288 17.7324 30.0461 17.3701 30.81 17.1411C30.921 17.8081 30.93 18.5371 30.682 19.1741C30.532 19.5581 30.607 20.0001 30.89 20.3141C31.614 21.1171 32 22.0401 32 23.0001C32 25.1141 30.03 27.1871 26.866 27.8181C26.074 27.9761 25.765 28.9731 26.371 29.5441C26.76 29.9101 27 30.4261 27 31.0001V34.0001C27 34.2653 27.1053 34.5196 27.2929 34.7072C27.4804 34.8947 27.7348 35.0001 28 35.0001C28.2652 35.0001 28.5196 34.8947 28.7071 34.7072C28.8946 34.5196 29 34.2653 29 34.0001V31.0001C29 30.4301 28.88 29.8881 28.666 29.3971C31.683 28.3501 34 25.9931 34 23.0001C34 21.6531 33.516 20.4151 32.713 19.3781C32.923 18.5581 32.904 17.7321 32.824 17.0981C32.753 16.5301 32.654 15.7861 32.254 15.3421C31.659 14.6831 30.674 15.0711 29.974 15.3101C29.2231 15.5641 28.5087 15.9155 27.849 16.3551C26.918 16.1175 25.9608 15.9982 25 16.0001C24.006 16.0001 23.047 16.1251 22.149 16.3561C21.4893 15.9164 20.7749 15.5651 20.024 15.3111C19.324 15.0711 18.338 14.6831 17.743 15.3421C17.335 15.7941 17.25 16.4791 17.177 17.0611L17.172 17.0991C17.092 17.7341 17.074 18.5611 17.284 19.3821C16.484 20.4181 16 21.6541 16 23.0001C16 25.9921 18.317 28.3501 21.334 29.3971C21.1156 29.8963 21.0019 30.4351 21 30.9801L20.832 31.0141C20.115 31.1131 19.656 31.0241 19.344 30.8921C18.584 30.5701 18.192 29.7591 17.714 29.1391C17.416 28.7541 16.982 28.2731 16.316 28.0511C16.1914 28.0096 16.0598 27.993 15.9288 28.0024C15.7977 28.0117 15.6699 28.0468 15.5524 28.1056C15.3152 28.2243 15.1348 28.4324 15.051 28.6841C14.9672 28.9357 14.9868 29.2104 15.1055 29.4477C15.2242 29.6849 15.4323 29.8652 15.684 29.9491C16.242 30.1351 16.628 31.0911 16.982 31.5151C17.355 31.9631 17.851 32.4311 18.562 32.7331C19.244 33.0231 20.045 33.1261 21 33.0091V34.0001C21 34.2653 21.1053 34.5196 21.2929 34.7072C21.4804 34.8947 21.7348 35.0001 22 35.0001C22.2652 35.0001 22.5196 34.8947 22.7071 34.7072C22.8946 34.5196 23 34.2653 23 34.0001V31.0001C23 30.4261 23.24 29.9101 23.629 29.5441C24.236 28.9721 23.926 27.9761 23.134 27.8181C19.969 27.1871 18 25.1141 18 23.0001C18 22.0421 18.385 21.1191 19.108 20.3161C19.391 20.0021 19.465 19.5601 19.315 19.1761Z" fill="#FDC435"/>
</svg>
