<svg width="238" height="238" viewBox="0 0 238 238" fill="none" xmlns="http://www.w3.org/2000/svg">
<circle cx="119" cy="119" r="98.5" fill="#FDC435" fill-opacity="0.15" stroke="#FDC435"/>
<circle cx="119" cy="119" r="118.5" stroke="#999999" stroke-opacity="0.3"/>
<path d="M93 120.875C93 120.136 93.1496 119.405 93.4403 118.722C93.731 118.04 94.157 117.42 94.6941 116.898C95.2312 116.375 95.8689 115.961 96.5706 115.678C97.2724 115.395 98.0246 115.25 98.7841 115.25C99.5437 115.25 100.296 115.395 100.998 115.678C101.699 115.961 102.337 116.375 102.874 116.898C103.411 117.42 103.837 118.04 104.128 118.722C104.419 119.405 104.568 120.136 104.568 120.875V143.375C104.568 144.867 103.959 146.298 102.874 147.352C101.789 148.407 100.318 149 98.7841 149C97.2501 149 95.7789 148.407 94.6941 147.352C93.6094 146.298 93 144.867 93 143.375V120.875ZM108.424 120.249V140.611C108.424 142.005 108.822 143.371 109.576 144.557C110.329 145.743 111.407 146.701 112.689 147.324L112.882 147.417C115.022 148.457 117.381 148.999 119.773 149H140.657C142.441 149.001 144.17 148.4 145.549 147.301C146.929 146.201 147.874 144.671 148.223 142.97L152.85 120.47C153.074 119.382 153.047 118.259 152.77 117.183C152.494 116.106 151.975 115.103 151.252 114.245C150.529 113.387 149.619 112.696 148.587 112.221C147.556 111.746 146.43 111.5 145.289 111.5H131.561V96.5C131.561 94.5109 130.748 92.6032 129.302 91.1967C127.856 89.7902 125.894 89 123.849 89C122.826 89 121.845 89.3951 121.122 90.0983C120.399 90.8016 119.993 91.7554 119.993 92.75V95.2513C119.993 98.4968 118.91 101.655 116.908 104.251L111.509 111.249C109.507 113.845 108.424 117.003 108.424 120.249Z" fill="#FDC435"/>
</svg>
