<svg width="239" height="238" viewBox="0 0 239 238" fill="none" xmlns="http://www.w3.org/2000/svg">
<circle cx="119.333" cy="119" r="98.5" fill="#FDC435" fill-opacity="0.15" stroke="#FDC435"/>
<circle cx="119.333" cy="119" r="118.5" stroke="#999999" stroke-opacity="0.3"/>
<path d="M118.576 90.9553C119.137 90.3393 119.82 89.8473 120.582 89.5106C121.343 89.1739 122.167 89 123 89C123.833 89 124.657 89.1739 125.418 89.5106C126.18 89.8473 126.863 90.3393 127.424 90.9553L130.475 94.3053C131.067 94.9556 131.796 95.4673 132.608 95.8039C133.421 96.1404 134.298 96.2936 135.177 96.2525L139.702 96.0432C140.534 96.004 141.365 96.1388 142.141 96.439C142.918 96.7392 143.623 97.1982 144.212 97.7867C144.801 98.3751 145.261 99.0799 145.562 99.8562C145.863 100.632 145.998 101.463 145.96 102.295L145.747 106.823C145.706 107.702 145.86 108.579 146.196 109.392C146.533 110.204 147.044 110.933 147.695 111.525L151.045 114.576C151.661 115.137 152.153 115.82 152.489 116.582C152.826 117.343 153 118.167 153 119C153 119.833 152.826 120.657 152.489 121.418C152.153 122.18 151.661 122.863 151.045 123.424L147.695 126.475C147.044 127.067 146.533 127.796 146.196 128.608C145.86 129.421 145.706 130.298 145.747 131.177L145.957 135.702C145.996 136.534 145.861 137.365 145.561 138.141C145.261 138.918 144.802 139.623 144.213 140.212C143.625 140.801 142.92 141.261 142.144 141.562C141.368 141.863 140.537 141.998 139.705 141.96L135.177 141.747C134.298 141.706 133.421 141.86 132.608 142.196C131.796 142.533 131.067 143.044 130.475 143.695L127.424 147.045C126.863 147.661 126.18 148.153 125.418 148.489C124.657 148.826 123.833 149 123 149C122.167 149 121.343 148.826 120.582 148.489C119.82 148.153 119.137 147.661 118.576 147.045L115.525 143.695C114.933 143.044 114.204 142.533 113.392 142.196C112.579 141.86 111.702 141.706 110.823 141.747L106.298 141.957C105.466 141.996 104.635 141.861 103.859 141.561C103.082 141.261 102.377 140.802 101.788 140.213C101.199 139.625 100.739 138.92 100.438 138.144C100.137 137.368 100.002 136.537 100.04 135.705L100.253 131.177C100.294 130.298 100.14 129.421 99.8039 128.608C99.4673 127.796 98.9556 127.067 98.3053 126.475L94.9553 123.424C94.3393 122.863 93.8473 122.18 93.5106 121.418C93.1739 120.657 93 119.833 93 119C93 118.167 93.1739 117.343 93.5106 116.582C93.8473 115.82 94.3393 115.137 94.9553 114.576L98.3053 111.525C98.9556 110.933 99.4673 110.204 99.8039 109.392C100.14 108.579 100.294 107.702 100.253 106.823L100.043 102.298C100.004 101.466 100.139 100.635 100.439 99.8588C100.739 99.0823 101.198 98.377 101.787 97.788C102.375 97.199 103.08 96.7393 103.856 96.4384C104.632 96.1374 105.463 96.0018 106.295 96.0402L110.823 96.2525C111.702 96.2936 112.579 96.1404 113.392 95.8039C114.204 95.4673 114.933 94.9556 115.525 94.3053L118.576 90.9553Z" fill="#FDC435"/>
<path d="M114.027 119L120.009 124.982L131.973 113.018" fill="#FDC435"/>
<path d="M114.027 119L120.009 124.982L131.973 113.018" stroke="white" stroke-width="5" stroke-linecap="round" stroke-linejoin="round"/>
</svg>
