<svg width="238" height="238" viewBox="0 0 238 238" fill="none" xmlns="http://www.w3.org/2000/svg">
<circle cx="119" cy="119" r="98.5" fill="#FDC435" fill-opacity="0.15" stroke="#FDC435"/>
<circle cx="119" cy="119" r="118.5" stroke="#999999" stroke-opacity="0.3"/>
<path d="M138.714 114.714C142.971 114.714 146.914 116.057 150.143 118.314V106.143C150.143 102.971 147.6 100.429 144.429 100.429H133V94.7143C133 91.5429 130.457 89 127.286 89H115.857C112.686 89 110.143 91.5429 110.143 94.7143V100.429H98.7143C95.5429 100.429 93.0286 102.971 93.0286 106.143L93 137.571C93 140.743 95.5429 143.286 98.7143 143.286H120.657C119.208 140.239 118.553 136.874 118.755 133.506C118.956 130.138 120.007 126.875 121.81 124.023C123.613 121.17 126.109 118.821 129.064 117.193C132.02 115.565 135.34 114.713 138.714 114.714ZM115.857 94.7143H127.286V100.429H115.857V94.7143Z" fill="#FDC435"/>
<path d="M138.714 120.429C130.829 120.429 124.429 126.829 124.429 134.714C124.429 142.6 130.829 149 138.714 149C146.6 149 153 142.6 153 134.714C153 126.829 146.6 120.429 138.714 120.429ZM143.429 141.429L137.286 135.286V126.143H140.143V134.114L145.429 139.4L143.429 141.429Z" fill="#FDC435"/>
</svg>
