<svg width="238" height="238" viewBox="0 0 238 238" fill="none" xmlns="http://www.w3.org/2000/svg">
<circle cx="119" cy="119" r="98.5" fill="#FDC435" fill-opacity="0.15" stroke="#FDC435"/>
<path d="M148.36 113.373C146.975 106.858 143.303 100.927 138.018 96.675C132.613 92.3509 125.897 89.9966 118.976 90C110.817 90 103.197 93.1433 97.4992 98.8513C91.9934 104.375 88.976 111.667 89.0001 119.38C89.0003 125.035 90.6605 130.565 93.7747 135.285L94.3573 136.095L91.143 150L106.518 146.175C106.518 146.175 106.826 146.278 107.054 146.365C107.281 146.452 109.241 147.203 111.319 147.785C113.047 148.267 116.642 148.99 119.458 148.99C127.447 148.99 134.907 145.896 140.462 140.277C145.968 134.701 149 127.288 149 119.396C149 117.371 148.786 115.352 148.36 113.373ZM106.143 124.286C105.295 124.286 104.467 124.034 103.762 123.563C103.057 123.092 102.508 122.423 102.183 121.64C101.859 120.857 101.774 119.995 101.94 119.164C102.105 118.332 102.513 117.569 103.113 116.969C103.712 116.37 104.476 115.962 105.307 115.797C106.138 115.631 107 115.716 107.783 116.04C108.566 116.365 109.235 116.914 109.706 117.619C110.177 118.324 110.429 119.152 110.429 120C110.429 121.137 109.977 122.227 109.173 123.03C108.37 123.834 107.28 124.286 106.143 124.286ZM119 124.286C118.152 124.286 117.324 124.034 116.619 123.563C115.914 123.092 115.365 122.423 115.041 121.64C114.716 120.857 114.631 119.995 114.797 119.164C114.962 118.332 115.37 117.569 115.97 116.969C116.569 116.37 117.333 115.962 118.164 115.797C118.995 115.631 119.857 115.716 120.64 116.04C121.423 116.365 122.093 116.914 122.564 117.619C123.034 118.324 123.286 119.152 123.286 120C123.286 121.137 122.834 122.227 122.031 123.03C121.227 123.834 120.137 124.286 119 124.286ZM131.857 124.286C131.01 124.286 130.181 124.034 129.476 123.563C128.771 123.092 128.222 122.423 127.898 121.64C127.573 120.857 127.488 119.995 127.654 119.164C127.819 118.332 128.227 117.569 128.827 116.969C129.426 116.37 130.19 115.962 131.021 115.797C131.852 115.631 132.714 115.716 133.497 116.04C134.28 116.365 134.95 116.914 135.421 117.619C135.892 118.324 136.143 119.152 136.143 120C136.143 121.137 135.691 122.227 134.888 123.03C134.084 123.834 132.994 124.286 131.857 124.286Z" fill="#FDC435"/>
<circle cx="119" cy="119" r="118.5" stroke="#999999" stroke-opacity="0.3"/>
</svg>
